<?xml version="1.0" encoding="UTF-8"?>
<svg width="31px" height="31px" viewBox="0 0 31 31" version="1.1" xmlns="http://www.w3.org/2000/svg" xmlns:xlink="http://www.w3.org/1999/xlink">
    <!-- Generator: Sketch 48.2 (47327) - http://www.bohemiancoding.com/sketch -->
    <title>arabesque-deco</title>
    <desc>Created with Sketch.</desc>
    <defs></defs>
    <g id="Page-1" stroke="none" stroke-width="1" fill="none" fill-rule="evenodd">
        <g id="arabesque-deco" transform="translate(15.500000, 15.500000) rotate(-90.000000) translate(-15.500000, -15.500000) " fill="#FFFFFF" fill-rule="nonzero">
            <path d="M11.9,30.7 C11.0333333,28.7666667 9.53333333,27.3666667 7.4,26.5 C-0.6,23.2 4.8,19.2 4.8,19.2 C0.1,19 -1,16.5 4.6,16.5 C10,16.5 9.2,20.2 14.2,20.2 C17.5,20.2 18.2,15.7 18.2,15.7 C18.2,15.7 17.5,11.2 14.2,11.2 C9.2,11.2 10,14.9 4.6,14.9 C-1.1,14.9 0.1,12.5 4.8,12.2 C4.8,12.2 -0.6,8.2 7.4,4.9 C9.46666667,4.03333333 10.9666667,2.63333333 11.9,0.7 L16,0.7 C16.6,2.16666667 16.8,3.46666667 16.6,4.6 C16.6,4.6 21.1,3.6 23.3,8.4 C25.5,13.2 30.7,15.7 30.7,15.7 C30.7,15.7 25.5,18.2 23.3,23 C21.1,27.8 16.6,26.8 16.6,26.8 C16.8,28 16.6,29.3 16,30.7 L11.9,30.7 Z" id="Combined-Shape"></path>
        </g>
    </g>
</svg>